<svg width="69" height="51" viewBox="0 0 69 51" fill="none" xmlns="http://www.w3.org/2000/svg">
<path fill-rule="evenodd" clip-rule="evenodd" d="M68.875 25.5001C68.875 11.693 57.6821 0.500122 43.875 0.500122C30.0679 0.500122 18.875 11.693 18.875 25.5001C18.875 39.3072 30.0679 50.5001 43.875 50.5001C57.6821 50.5001 68.875 39.3072 68.875 25.5001ZM25.1252 25.5C25.1252 15.1447 33.5199 6.75 43.8752 6.75C54.2306 6.75 62.6252 15.1447 62.6252 25.5C62.6252 35.8553 54.2306 44.25 43.8752 44.25C33.5199 44.25 25.1252 35.8553 25.1252 25.5ZM40.75 13.0001H45.4375V24.8126L52.7188 32.0939L49.4062 35.4064L40.75 26.7501V13.0001ZM0.125 41.1251C0.125 42.851 1.52411 44.2501 3.25 44.2501H18.875C17.4375 42.3126 16.1875 40.2189 15.2188 38.0001H3.25C1.52411 38.0001 0.125 39.3992 0.125 41.1251ZM6.375 28.6251C4.64911 28.6251 3.25 27.226 3.25 25.5001C3.25 23.7742 4.64911 22.3751 6.375 22.3751H12.7812L12.625 25.5001L12.7812 28.6251H6.375ZM6.37524 9.875C6.37524 11.6009 7.77435 13 9.50024 13H15.219C16.1877 10.7812 17.4377 8.6875 18.8752 6.75H9.50024C7.77435 6.75 6.37524 8.14911 6.37524 9.875Z" fill="#065489"/>
</svg>
