<svg width="63" height="66" viewBox="0 0 63 66" fill="none" xmlns="http://www.w3.org/2000/svg">
<path fill-rule="evenodd" clip-rule="evenodd" d="M62.875 43.9999C62.875 56.0937 53.0938 65.8749 41 65.8749C33.8367 65.8805 27.1246 62.3785 23.0312 56.4999C10.3438 55.8437 0.375 50.4999 0.375 43.9999V12.7499C0.375 5.84366 11.5625 0.249908 25.375 0.249908C39.1875 0.249908 50.375 5.84366 50.375 12.7499V24.2499C57.75 27.7812 62.875 35.2812 62.875 43.9999ZM42.5625 44.7813L51.5 50.0625L49.1562 53.875L37.875 47.125V31.5H42.5625V44.7813ZM44.1252 20.9999V22.3749C43.344 22.2499 42.5627 22.1249 41.7502 22.1249C42.5627 21.8124 43.4065 21.4061 44.1252 20.9999ZM6.62524 12.7498C6.62524 14.3123 13.2815 18.9998 25.3752 18.9998C37.469 18.9998 44.1252 14.3123 44.1252 12.7498C44.1252 11.1873 37.469 6.49984 25.3752 6.49984C13.2815 6.49984 6.62524 11.1873 6.62524 12.7498ZM21.3752 34.4063C15.3752 33.8751 9.96899 32.2188 6.62524 29.7813V21.0001C11.219 23.5938 17.9065 25.2501 25.3752 25.2501C27.0315 25.2501 28.6252 25.1563 30.1877 25.0001C26.3752 27.1876 23.2815 30.4688 21.3752 34.4063ZM19.9377 49.8437C19.4377 47.9687 19.1252 46.0312 19.1252 44C19.1252 42.7812 19.2502 41.5937 19.4377 40.4375C14.6252 39.9062 10.219 38.7812 6.62524 37.0312V44C6.62524 45.3125 11.3127 48.6875 19.9377 49.8437ZM41.0002 28.3749C49.6252 28.3749 56.6252 35.3749 56.6252 43.9999C56.6252 52.6249 49.6252 59.6249 41.0002 59.6249C32.3752 59.6249 25.3752 52.6249 25.3752 43.9999C25.3752 35.3749 32.3752 28.3749 41.0002 28.3749Z" fill="#065489"/>
</svg>
