<svg width="63" height="36" viewBox="0 0 63 36" fill="none" xmlns="http://www.w3.org/2000/svg">
<path d="M17.4375 35.2501C7.94511 35.2501 0.25 27.555 0.25 18.0626C0.25 8.5702 7.94511 0.875092 17.4375 0.875092H50.25C57.1536 0.875092 62.75 6.47153 62.75 13.3751C62.75 20.2787 57.1536 25.8751 50.25 25.8751H23.6875C19.3728 25.8751 15.875 22.3773 15.875 18.0626C15.875 13.7479 19.3728 10.2501 23.6875 10.2501H47.125V14.9376H23.6875C21.9616 14.9376 20.5625 16.3367 20.5625 18.0626C20.5625 19.7885 21.9616 21.1876 23.6875 21.1876H50.25C52.322 21.1876 54.3091 20.3645 55.7743 18.8994C57.2394 17.4342 58.0625 15.4471 58.0625 13.3751C58.0625 11.3031 57.2394 9.31595 55.7743 7.85082C54.3091 6.38569 52.322 5.56259 50.25 5.56259H17.4375C10.5339 5.56259 4.9375 11.159 4.9375 18.0626C4.9375 24.9662 10.5339 30.5626 17.4375 30.5626H47.125V35.2501H17.4375Z" fill="#065489"/>
</svg>
