<svg width="24" height="24" viewBox="0 0 24 24" fill="none" xmlns="http://www.w3.org/2000/svg">
<path fill-rule="evenodd" clip-rule="evenodd" d="M7.66591 2H16.3349C19.7385 2 21.9999 4.42931 21.9999 7.916V16.084C21.9999 19.567 19.7318 22 16.3349 22H7.66591C4.26212 22 1.99991 19.5705 1.99991 16.084V7.916C1.99991 4.4295 4.26212 2 7.66591 2ZM16.3349 3.5H7.66591C5.11541 3.5 3.49991 5.23496 3.49991 7.916V16.084C3.49991 18.765 5.11541 20.5 7.66591 20.5H16.3349C18.879 20.5 20.4999 18.7612 20.4999 16.084V7.916C20.4999 5.23468 18.8851 3.5 16.3349 3.5ZM11.9999 7.164C12.3796 7.164 12.6934 7.44615 12.7431 7.81223L12.7499 7.914V14.2692L15.2164 11.7931C15.4821 11.5263 15.8988 11.5012 16.1928 11.7184L16.2771 11.7908C16.5439 12.0565 16.569 12.4732 16.3518 12.7672L16.2794 12.8515L12.5314 16.6155C12.2649 16.8831 11.8467 16.9075 11.5527 16.6885L11.5496 16.6858C11.5217 16.6648 11.4954 16.642 11.4707 16.6174L11.4684 16.6155L7.72045 12.8515C7.42818 12.558 7.42919 12.0831 7.72271 11.7908C7.98954 11.5251 8.40626 11.5018 8.6994 11.7203L8.78337 11.7931L11.2499 14.2706V7.914C11.2499 7.49979 11.5857 7.164 11.9999 7.164Z" fill="#E74C3C"/>
</svg>
