<svg width="24" height="24" viewBox="0 0 24 24" fill="none" xmlns="http://www.w3.org/2000/svg">
<path fill-rule="evenodd" clip-rule="evenodd" d="M20.7197 2.22088C21.0126 1.92798 21.4874 1.92798 21.7803 2.22088C22.0466 2.48714 22.0708 2.90381 21.8529 3.19742L21.7803 3.28154L12.3345 12.7274C13.053 13.3279 13.8864 13.8237 14.8192 14.208C15.0107 14.2786 15.1626 14.2498 15.5273 14.0508L15.7279 13.9373C16.5157 13.4844 16.9649 13.3317 17.6439 13.4748C18.2636 13.596 20.5248 15.2985 21.2905 16.092C21.6945 16.5121 21.9536 16.9651 21.9993 17.5216C22.0529 18.8933 20.3908 20.8117 19.3786 21.3801C18.2302 22.2083 16.7677 22.1961 15.1331 21.4348C13.2188 20.6427 10.7733 18.8561 8.44487 16.617L3.28032 21.7815C2.98743 22.0744 2.51256 22.0744 2.21966 21.7815C1.9534 21.5153 1.92919 21.0986 2.14704 20.805L2.21966 20.7209L10.7034 12.2372C10.7088 12.2314 10.7143 12.2258 10.7199 12.2202C10.7253 12.2148 10.7307 12.2095 10.7362 12.2043L20.7197 2.22088ZM11.2703 13.7916L9.50578 15.5561C11.7049 17.6669 13.9998 19.3425 15.7363 20.0618C16.8745 20.5914 17.735 20.631 18.4327 20.2097L18.5701 20.1193C19.2132 19.7549 20.5262 18.2394 20.5025 17.6133C20.4926 17.4943 20.3966 17.3265 20.2102 17.1326C19.6525 16.5547 17.5736 14.9894 17.3454 14.9447C17.1554 14.9047 16.9942 14.949 16.6117 15.1608L16.4027 15.2796C15.5881 15.7461 15.0496 15.8915 14.2744 15.6053C13.1375 15.1373 12.1329 14.5321 11.2703 13.7916ZM6.51512 2.00369C7.03691 2.04874 7.48928 2.30688 7.91276 2.71253C8.24108 3.03097 8.83738 3.74902 9.37991 4.47133L9.66326 4.85452C10.1891 5.57669 10.4703 6.03933 10.5235 6.3464C10.6565 6.97826 10.5396 7.40818 10.1706 8.08236L10.0239 8.34209C9.75911 8.80482 9.71476 8.96913 9.78361 9.15757C9.87487 9.38034 9.96545 9.58283 10.0587 9.77101C10.2425 10.1422 10.0907 10.5921 9.71949 10.776C9.34831 10.9598 8.89837 10.808 8.71452 10.4368C8.60463 10.2149 8.49969 9.98036 8.38576 9.70098C8.13103 9.00897 8.23523 8.49713 8.61994 7.78074L8.76299 7.52559C9.04057 7.04225 9.10016 6.86667 9.05078 6.62996L9.02941 6.59037C8.94911 6.45659 8.65121 6.0091 8.27541 5.4998L8.17991 5.37133C7.68149 4.70774 7.12708 4.04014 6.8718 3.79253C6.67591 3.6049 6.50712 3.50858 6.4141 3.50002C5.82365 3.47125 4.46627 4.59364 3.91781 5.37835L3.83416 5.50575C3.39605 6.10251 3.38381 6.93608 3.86672 8.08599L3.96309 8.30532C4.48102 9.56302 5.49805 11.1126 6.86197 12.7438C7.12767 13.0616 7.08545 13.5346 6.76768 13.8003C6.4499 14.066 5.97691 14.0238 5.71122 13.706C4.35422 12.083 3.30871 10.5197 2.70942 9.18583L2.58788 8.90358C1.81467 7.21775 1.78989 5.75562 2.58836 4.6729C3.2885 3.5188 5.15529 1.93691 6.51512 2.00369Z" fill="#E74C3C"/>
</svg>
