<svg width="24" height="24" viewBox="0 0 24 24" fill="none" xmlns="http://www.w3.org/2000/svg">
<path fill-rule="evenodd" clip-rule="evenodd" d="M16.3345 2.0002H7.6655C4.26793 2.0002 2.0005 4.43279 2.0005 7.9162V16.0842C2.0005 19.5709 4.26187 22.0002 7.6655 22.0002H16.3335C19.7381 22.0002 22.0005 19.5709 22.0005 16.0842V7.9162C22.0005 4.4297 19.7383 2.0002 16.3345 2.0002ZM7.6655 3.5002H16.3345C18.885 3.5002 20.5005 5.23516 20.5005 7.9162V16.0842C20.5005 18.7654 18.8849 20.5002 16.3335 20.5002H7.6655C5.11526 20.5002 3.5005 18.7655 3.5005 16.0842V7.9162C3.5005 5.23857 5.12084 3.5002 7.6655 3.5002ZM9.07073 9.06241C9.33702 8.79617 9.75369 8.77201 10.0473 8.9899L10.1314 9.06252L11.9991 10.9306L13.8652 9.06457C14.1581 8.77168 14.6329 8.77168 14.9258 9.06457C15.1921 9.33083 15.2163 9.7475 14.9985 10.0411L14.9258 10.1252L13.0597 11.9914L14.9274 13.8595C15.2203 14.1524 15.2202 14.6273 14.9273 14.9202C14.661 15.1864 14.2443 15.2106 13.9507 14.9927L13.8666 14.9201L11.999 13.0521L10.1338 14.9172C9.84094 15.2101 9.36607 15.2101 9.07317 14.9172C8.80691 14.651 8.7827 14.2343 9.00056 13.9407L9.07317 13.8566L10.9384 11.9913L9.07062 10.1231C8.77776 9.83015 8.77781 9.35528 9.07073 9.06241Z" fill="#E74C3C"/>
</svg>
