<svg width="24" height="24" viewBox="0 0 24 24" fill="none" xmlns="http://www.w3.org/2000/svg">
<path fill-rule="evenodd" clip-rule="evenodd" d="M14.3799 4.2979C13.5873 3.05582 11.9449 2.62625 10.6301 3.35492C10.1663 3.60988 9.78192 3.99392 9.52427 4.46014L2.2525 17.1868L2.18779 17.358C1.67376 18.8448 2.37086 20.3951 3.76377 20.9625L3.98678 21.0419C4.21225 21.1118 4.44472 21.1535 4.68074 21.1667L4.764 21.165L4.7957 21.1679H19.2777L19.4538 21.1536C20.9645 20.9864 22.074 19.6979 21.9967 18.1954C21.9787 17.8746 21.9096 17.5637 21.7903 17.2737L14.4709 4.45083L14.3799 4.2979ZM11.355 4.66815C11.9995 4.31095 12.8079 4.54333 13.1634 5.18597L20.4455 17.931L20.4671 18.0285C20.48 18.0953 20.4938 18.1845 20.4989 18.2759C20.5364 19.0056 19.9726 19.6305 19.2385 19.6689L4.7957 19.6679L4.765 19.669L4.61438 19.6526C4.51543 19.6363 4.41917 19.6094 4.32691 19.5722C3.6496 19.2963 3.32244 18.5212 3.59861 17.841L10.8319 5.19498L10.9138 5.06423C11.0312 4.89784 11.1811 4.76372 11.355 4.66815ZM11.2503 16.2696C11.2503 15.8556 11.5863 15.5136 12.0003 15.5136C12.4143 15.5136 12.7503 15.8446 12.7503 16.2586V16.2696C12.7503 16.6836 12.4143 17.0196 12.0003 17.0196C11.5863 17.0196 11.2503 16.6836 11.2503 16.2696ZM12.7331 10.1943C12.6834 9.82826 12.3696 9.5461 11.9899 9.5461C11.5757 9.5461 11.2399 9.88189 11.2399 10.2961V13.3961L11.2467 13.4979C11.2964 13.8639 11.6102 14.1461 11.9899 14.1461C12.4041 14.1461 12.7399 13.8103 12.7399 13.3961V10.2961L12.7331 10.1943Z" fill="#E74C3C"/>
</svg>
