<svg width="24" height="24" viewBox="0 0 24 24" fill="none" xmlns="http://www.w3.org/2000/svg">
<path fill-rule="evenodd" clip-rule="evenodd" d="M9.86477 2.88767C10.9911 1.75619 12.7936 1.70638 13.9513 2.71646L14.1336 2.88647L14.8524 3.60521C15.0993 3.85093 15.4231 4.00243 15.7676 4.03647L15.9163 4.0438H16.9443C18.5481 4.0438 19.8596 5.29796 19.9512 6.87885L19.9563 7.0558V8.0828C19.9563 8.43259 20.0769 8.76887 20.2945 9.03625L20.3936 9.14647L21.1124 9.86527C22.2439 10.9917 22.2945 12.793 21.2579 13.98L21.1226 14.1251L20.3943 14.8535C20.1493 15.0991 19.9977 15.4231 19.9636 15.7673L19.9563 15.9158V16.9448C19.9563 18.5485 18.7022 19.8591 17.1213 19.9507L16.9443 19.9558H15.9163C15.5678 19.9558 15.231 20.0769 14.9635 20.2951L14.8533 20.3945L14.1354 21.1113C13.0102 22.2442 11.2076 22.2944 10.0201 21.2574L9.86597 21.1131L9.14886 20.396C8.90046 20.1494 8.57603 19.9973 8.23252 19.9632L8.0843 19.9558H7.0553C5.45217 19.9558 4.14102 18.7023 4.04941 17.1217L4.0443 16.9448V15.9158C4.0443 15.5678 3.923 15.2308 3.70492 14.9637L3.6056 14.8538L2.88847 14.1356C1.7559 13.0094 1.70566 11.2068 2.74268 10.0205L2.87797 9.87547L3.60409 9.14835C3.85104 8.89965 4.00286 8.57583 4.03696 8.23148L4.0443 8.0828V7.0558L4.04941 6.87887C4.13763 5.3567 5.3568 4.13716 6.87843 4.04891L7.0553 4.0438H8.0843C8.43278 4.0438 8.76955 3.92291 9.03659 3.70574L9.1466 3.60684L9.86477 2.88767ZM13.105 3.97735L13.0652 3.94033C12.5109 3.38856 11.635 3.35626 11.0417 3.84258L10.927 3.94676L10.2057 4.66901C9.6885 5.18259 9.00438 5.48967 8.28213 5.53728L8.0843 5.5438H7.0553C6.26774 5.5438 5.62002 6.14795 5.55048 6.91823L5.5443 7.0558V8.0828C5.5443 8.81196 5.27969 9.51311 4.8024 10.0612L4.667 10.2068L3.93983 10.9349C3.38801 11.4892 3.35589 12.3649 3.84354 12.959L3.948 13.0738L4.66726 13.7941C5.18166 14.3097 5.48995 14.995 5.53776 15.7178L5.5443 15.9158V16.9448C5.5443 17.7328 6.148 18.3801 6.91782 18.4496L7.0553 18.4558H8.0843C8.81209 18.4558 9.51384 18.7207 10.062 19.1981L10.2076 19.3335L10.9309 20.0568C11.4892 20.6119 12.3651 20.6442 12.9586 20.1566L13.0733 20.0521L13.7942 19.3322C14.3109 18.8179 14.9954 18.5101 15.7183 18.4623L15.9163 18.4558H16.9443C17.733 18.4558 18.3806 17.8524 18.4501 17.0823L18.4563 16.9448V15.9158C18.4563 15.1869 18.7211 14.4839 19.1978 13.9383L19.333 13.7935L20.0605 13.066C20.6123 12.511 20.6442 11.6358 20.1573 11.042L20.053 10.9271L19.3311 10.2052C18.8172 9.68767 18.5104 9.00424 18.4628 8.28095L18.4563 8.0828V7.0558C18.4563 6.26739 17.8522 5.61953 17.0819 5.54998L16.9443 5.5438H15.9163C15.1871 5.5438 14.4851 5.27941 13.9382 4.80244L13.793 4.66713L13.105 3.97735ZM14.0367 15.1024C14.1767 15.2424 14.3667 15.3224 14.5667 15.3224C14.7667 15.3224 14.9567 15.2424 15.0967 15.1024C15.1667 15.0324 15.2267 14.9424 15.2667 14.8524C15.2967 14.7624 15.3167 14.6734 15.3167 14.5724C15.3167 14.4724 15.2967 14.3724 15.2667 14.2824C15.2267 14.1924 15.1667 14.1124 15.0967 14.0424C14.8167 13.7624 14.3167 13.7624 14.0367 14.0424C13.9667 14.1124 13.9167 14.1924 13.8767 14.2824C13.8367 14.3724 13.8167 14.4724 13.8167 14.5724C13.8167 14.6734 13.8367 14.7624 13.8767 14.8524C13.9167 14.9424 13.9667 15.0324 14.0367 15.1024ZM9.4266 10.1828C9.3266 10.1828 9.2366 10.1618 9.1466 10.1218C9.0566 10.0818 8.9666 10.0328 8.8966 9.9628C8.8266 9.8828 8.7766 9.8028 8.7366 9.7128C8.6966 9.6218 8.6766 9.5328 8.6766 9.4328C8.6766 9.3318 8.6966 9.2328 8.7366 9.1428C8.7766 9.0528 8.8266 8.9628 8.8966 8.9028C9.1866 8.6218 9.6766 8.6218 9.9566 8.9028C10.0966 9.0418 10.1766 9.2328 10.1766 9.4328C10.1766 9.5328 10.1666 9.6218 10.1266 9.7128C10.0866 9.8028 10.0266 9.8828 9.9566 9.9628C9.8866 10.0328 9.8066 10.0818 9.7166 10.1218C9.6266 10.1618 9.5266 10.1828 9.4266 10.1828ZM15.1003 8.89917C14.8074 8.60627 14.3326 8.60627 14.0397 8.89917L8.89967 14.0392L8.82705 14.1233C8.6092 14.4169 8.6334 14.8336 8.89967 15.0998C9.19256 15.3927 9.66744 15.3927 9.96033 15.0998L15.1003 9.95983L15.1729 9.87571C15.3908 9.5821 15.3666 9.16543 15.1003 8.89917Z" fill="#E74C3C"/>
</svg>
