<svg width="24" height="24" viewBox="0 0 24 24" fill="none" xmlns="http://www.w3.org/2000/svg">
<path fill-rule="evenodd" clip-rule="evenodd" d="M11.3722 3.3951V13.6193L9.73761 11.9792L9.65364 11.9064C9.36048 11.6879 8.94377 11.7113 8.67695 11.977C8.38346 12.2693 8.38248 12.7441 8.67478 13.0376L11.5908 15.9656L11.593 15.9676C11.6177 15.9921 11.644 16.015 11.6719 16.0359L11.675 16.0386C11.969 16.2576 12.3871 16.2332 12.6536 15.9656L15.5696 13.0376L15.6421 12.9534C15.8593 12.6593 15.8342 12.2427 15.5674 11.977L15.4832 11.9045C15.1891 11.6873 14.7725 11.7123 14.5068 11.9792L12.8722 13.6198V3.3951L12.8653 3.29333C12.8157 2.92725 12.5019 2.6451 12.1222 2.6451C11.708 2.6451 11.3722 2.98088 11.3722 3.3951ZM17.9053 21.1172C20.2528 21.0084 22.122 19.0714 22.122 16.697V11.813L22.1172 11.6042C22.0082 9.25116 20.0674 7.378 17.688 7.378H16.755L16.6532 7.38484C16.2871 7.4345 16.005 7.7483 16.005 8.128C16.005 8.54221 16.3408 8.878 16.755 8.878H17.688L17.8604 8.88298C19.401 8.9722 20.622 10.2492 20.622 11.813V16.697L20.617 16.8689C20.5281 18.4046 19.2551 19.622 17.697 19.622H6.55699L6.38456 19.617C4.84401 19.5277 3.62199 18.2499 3.62199 16.687V11.802L3.62696 11.6302C3.71595 10.0956 4.98963 8.878 6.54699 8.878H7.48899L7.59076 8.87115C7.95684 8.82149 8.23899 8.50769 8.23899 8.128C8.23899 7.71378 7.90321 7.378 7.48899 7.378H6.54699L6.33264 7.3831C3.9888 7.49492 2.12199 9.43077 2.12199 11.802V16.687L2.12682 16.8958C2.23585 19.2481 4.17776 21.122 6.55699 21.122H17.697L17.9053 21.1172Z" fill="#E74C3C"/>
</svg>
