<svg width="24" height="24" viewBox="0 0 24 24" fill="none" xmlns="http://www.w3.org/2000/svg">
<path fill-rule="evenodd" clip-rule="evenodd" d="M20.3394 7.6593C21.0094 8.1783 21.4204 8.9493 21.4904 9.7883L21.5004 9.9893V18.0983C21.5004 20.1883 19.8494 21.8883 17.7804 21.9983H15.7904C14.8394 21.9793 14.0704 21.2393 14.0004 20.3093L13.9904 20.1683V17.3093C13.9904 16.9983 13.7594 16.7393 13.4504 16.6883L13.3604 16.6783H10.6894C10.3704 16.6883 10.1104 16.9183 10.0704 17.2183L10.0604 17.3093V20.1593C10.0604 20.2183 10.0494 20.2883 10.0404 20.3383L10.0304 20.3593L10.0194 20.4283C9.9004 21.2793 9.2004 21.9283 8.3304 21.9893L8.2004 21.9983H6.4104C4.3204 21.9983 2.6104 20.3593 2.5004 18.2983V9.9893C2.5094 9.1383 2.8804 8.3483 3.5004 7.7983L9.7304 2.7883C11.0004 1.7793 12.7804 1.7393 14.0894 2.6683L14.2504 2.7883L20.3394 7.6593ZM20.0994 18.2583L20.1104 18.0983V9.9983C20.0994 9.5693 19.9204 9.1683 19.6104 8.8693L19.4804 8.7583L13.3804 3.8783C12.6204 3.2683 11.5404 3.2393 10.7404 3.7683L10.5894 3.8783L4.5094 8.7793C4.1604 9.0383 3.9504 9.4283 3.9004 9.8383L3.8894 9.9983V18.0983C3.8894 19.4283 4.9294 20.5183 6.2504 20.5983H8.2004C8.4204 20.5983 8.6104 20.4493 8.6394 20.2393L8.6604 20.0593L8.6704 20.0083V17.3093C8.6704 16.2393 9.4904 15.3693 10.5404 15.2883H13.3604C14.4294 15.2883 15.2994 16.1093 15.3804 17.1593V20.1683C15.3804 20.3783 15.5304 20.5593 15.7304 20.5983H17.5894C18.9294 20.5983 20.0194 19.5693 20.0994 18.2583Z" fill="#E74C3C"/>
</svg>
