<svg width="24" height="24" viewBox="0 0 24 24" fill="none" xmlns="http://www.w3.org/2000/svg">
<path fill-rule="evenodd" clip-rule="evenodd" d="M11.8724 1.9997C14.7264 1.9997 17.0544 4.25632 17.169 7.08227L17.1734 7.30075V8.87661C18.9499 9.49326 20.2252 11.1817 20.2252 13.1685V17.4575C20.2252 19.9664 18.1917 21.9995 15.6832 21.9995H8.0422C5.53367 21.9995 3.5002 19.9664 3.5002 17.4575V13.1685C3.5002 11.1816 4.77565 9.493 6.5524 8.87647L6.55241 7.27746C6.56522 4.34947 8.94825 1.98695 11.8724 1.9997ZM15.6734 7.30075V8.62654H8.0524V7.28075L8.0582 7.08543C8.16875 5.08021 9.83575 3.49083 11.8691 3.49969C13.9712 3.4997 15.6734 5.20195 15.6734 7.30075ZM15.6832 10.1265H8.0422C6.36204 10.1265 5.0002 11.4881 5.0002 13.1685V17.4575C5.0002 19.138 6.36204 20.4995 8.0422 20.4995H15.6832C17.3634 20.4995 18.7252 19.138 18.7252 17.4575V13.1685C18.7252 11.4881 17.3634 10.1265 15.6832 10.1265ZM12.6061 14.1009C12.5564 13.7348 12.2426 13.4526 11.8629 13.4526C11.4487 13.4526 11.1129 13.7884 11.1129 14.2026V16.4236L11.1197 16.5254C11.1694 16.8915 11.4832 17.1736 11.8629 17.1736C12.2771 17.1736 12.6129 16.8379 12.6129 16.4236V14.2026L12.6061 14.1009Z" fill="#E74C3C"/>
</svg>
