<svg width="24" height="24" viewBox="0 0 24 24" fill="none" xmlns="http://www.w3.org/2000/svg">
<path fill-rule="evenodd" clip-rule="evenodd" d="M21.4936 6.23867C21.3848 3.89122 19.4478 2.022 17.0734 2.022H12.1894L11.9806 2.02683C9.62757 2.13579 7.7544 4.07659 7.7544 6.456V7.389L7.76125 7.49077C7.81091 7.85685 8.1247 8.139 8.5044 8.139C8.91861 8.139 9.2544 7.80322 9.2544 7.389V6.456L9.25938 6.28356C9.3486 4.74298 10.6257 3.522 12.1894 3.522H17.0734L17.2453 3.52697C18.781 3.61591 19.9984 4.88892 19.9984 6.447V17.587L19.9934 17.7594C19.9041 19.3 18.6263 20.522 17.0634 20.522H12.1784L12.0066 20.517C10.472 20.428 9.2544 19.1544 9.2544 17.597V16.655L9.24755 16.5532C9.19789 16.1872 8.8841 15.905 8.5044 15.905C8.09019 15.905 7.7544 16.2408 7.7544 16.655V17.597L7.7595 17.8114C7.87132 20.1552 9.80717 22.022 12.1784 22.022H17.0634L17.2722 22.0172C19.6245 21.9082 21.4984 19.9662 21.4984 17.587V6.447L21.4936 6.23867ZM12.3534 8.57656C12.6191 8.30975 13.0357 8.28469 13.3298 8.50194L13.414 8.57439L16.342 11.4904C16.6096 11.7569 16.634 12.1749 16.415 12.469L16.4123 12.4721C16.3914 12.5 16.3685 12.5263 16.344 12.551L16.342 12.5532L13.414 15.4692C13.1205 15.7615 12.6457 15.7605 12.3534 15.467C12.0877 15.2002 12.0643 14.7835 12.2828 14.4904L12.3556 14.4064L13.9964 12.7718H3.7715C3.35729 12.7718 3.0215 12.436 3.0215 12.0218C3.0215 11.6421 3.30365 11.3283 3.66973 11.2786L3.7715 11.2718H13.9961L12.3556 9.63722C12.0887 9.3715 12.0637 8.95489 12.2809 8.66083L12.3534 8.57656Z" fill="#E74C3C"/>
</svg>
