<svg width="24" height="24" viewBox="0 0 24 24" fill="none" xmlns="http://www.w3.org/2000/svg">
<path fill-rule="evenodd" clip-rule="evenodd" d="M16.3347 2.0002H7.6657C4.26813 2.0002 2.0007 4.43279 2.0007 7.9162V16.0842C2.0007 19.5713 4.2614 22.0002 7.6657 22.0002H16.3337C19.7383 22.0002 22.0007 19.5709 22.0007 16.0842V7.9162C22.0007 4.4297 19.7385 2.0002 16.3347 2.0002ZM7.6657 3.5002H16.3347C18.8852 3.5002 20.5007 5.23516 20.5007 7.9162V16.0842C20.5007 18.7654 18.8851 20.5002 16.3337 20.5002H7.6657C5.11484 20.5002 3.5007 18.7659 3.5007 16.0842V7.9162C3.5007 5.23857 5.12104 3.5002 7.6657 3.5002ZM6.3228 12.0004C6.3228 12.6604 6.8598 13.1974 7.5208 13.1974C8.1818 13.1974 8.7188 12.6604 8.7188 12.0004C8.7188 11.3404 8.1818 10.8024 7.5208 10.8024C6.8598 10.8024 6.3228 11.3404 6.3228 12.0004ZM12.0002 13.1974C11.3392 13.1974 10.8022 12.6604 10.8022 12.0004C10.8022 11.3404 11.3392 10.8024 12.0002 10.8024C12.6612 10.8024 13.1982 11.3404 13.1982 12.0004C13.1982 12.6604 12.6612 13.1974 12.0002 13.1974ZM15.2812 12.0004C15.2812 12.6604 15.8182 13.1974 16.4792 13.1974C17.1402 13.1974 17.6772 12.6604 17.6772 12.0004C17.6772 11.3404 17.1402 10.8024 16.4792 10.8024C15.8182 10.8024 15.2812 11.3404 15.2812 12.0004Z" fill="#E74C3C"/>
</svg>
