<svg width="24" height="24" viewBox="0 0 24 24" fill="none" xmlns="http://www.w3.org/2000/svg">
<path fill-rule="evenodd" clip-rule="evenodd" d="M14.6064 2.0119C14.5633 2.00421 14.519 2.0002 14.4737 2.0002C14.4284 2.0002 14.3841 2.00421 14.341 2.0119H8.0844C5.5971 2.0119 3.5004 4.02973 3.5004 6.4909V17.2279C3.5004 19.8254 5.50124 21.8649 8.0844 21.8649H16.0724C18.5281 21.8649 20.5524 19.7229 20.5524 17.2279V8.0379C20.5524 7.84426 20.4775 7.65812 20.3434 7.51844L15.2774 2.24244C15.136 2.09516 14.9406 2.0119 14.7364 2.0119H14.6064ZM13.7237 3.5111L8.0844 3.5119C6.41294 3.5119 5.0004 4.8713 5.0004 6.4909V17.2279C5.0004 19.0034 6.33616 20.3649 8.0844 20.3649H16.0724C17.6801 20.3649 19.0524 18.9128 19.0524 17.2279L19.052 8.98328L18.1756 8.98627C17.8421 8.98586 17.4628 8.98516 17.0411 8.9842C15.2708 8.98046 13.8265 7.59367 13.7289 5.8476L13.7237 5.6592V3.5111ZM18.231 7.48404L17.0444 7.4842C16.038 7.48207 15.2237 6.66576 15.2237 5.6592V4.35215L18.231 7.48404ZM11.6407 8.6908C12.0204 8.6908 12.3342 8.97295 12.3839 9.33903L12.3907 9.4408V14.1966L13.9479 12.634C14.2401 12.3405 14.715 12.3395 15.0085 12.6318C15.2753 12.8975 15.3004 13.3141 15.0832 13.6081L15.0107 13.6924L12.1729 16.5422L12.1717 16.5434C12.1716 16.5435 12.1715 16.5436 12.1714 16.5438C11.9048 16.8111 11.4869 16.8353 11.193 16.6163L11.1862 16.6104C11.1612 16.5914 11.1374 16.5708 11.1151 16.5488L11.1088 16.5433L8.27076 13.6923C7.97854 13.3988 7.97962 12.9239 8.27318 12.6317C8.54006 12.366 8.95678 12.3427 9.24989 12.5613L9.33384 12.6341L10.8907 14.1989V9.4408C10.8907 9.02658 11.2265 8.6908 11.6407 8.6908Z" fill="#E74C3C"/>
</svg>
