<svg width="24" height="24" viewBox="0 0 24 24" fill="none" xmlns="http://www.w3.org/2000/svg">
<path fill-rule="evenodd" clip-rule="evenodd" d="M14.6063 2.0119C14.5632 2.00421 14.5189 2.0002 14.4736 2.0002C14.4283 2.0002 14.384 2.00421 14.3409 2.0119H8.0843C5.597 2.0119 3.5003 4.02973 3.5003 6.4909V17.2279C3.5003 19.8254 5.50114 21.8649 8.0843 21.8649H16.0723C18.528 21.8649 20.5523 19.7229 20.5523 17.2279V8.0379C20.5523 7.84426 20.4774 7.65812 20.3433 7.51844L15.2773 2.24244C15.1359 2.09516 14.9405 2.0119 14.7363 2.0119H14.6063ZM13.7236 3.5111L8.0843 3.5119C6.41283 3.5119 5.0003 4.8713 5.0003 6.4909V17.2279C5.0003 19.0034 6.33606 20.3649 8.0843 20.3649H16.0723C17.68 20.3649 19.0523 18.9128 19.0523 17.2279L19.052 8.98328L18.1755 8.98627C17.842 8.98586 17.4627 8.98516 17.041 8.9842C15.2707 8.98046 13.8264 7.59367 13.7288 5.8476L13.7236 5.6592V3.5111ZM18.231 7.48404L17.0443 7.4842C16.0379 7.48207 15.2236 6.66576 15.2236 5.6592V4.35205L18.231 7.48404ZM10.8906 11.256V16.0136L10.8974 16.1154C10.9471 16.4814 11.2609 16.7636 11.6406 16.7636C12.0548 16.7636 12.3906 16.4278 12.3906 16.0136V11.2567L13.9478 12.8204L14.0317 12.8932C14.3249 13.1117 14.7416 13.0884 15.0084 12.8226C15.3019 12.5304 15.3029 12.0555 15.0106 11.762L12.1731 8.91243C12.1469 8.88601 12.1187 8.86152 12.0888 8.83922L12.0874 8.83799C11.7933 8.61901 11.3751 8.64338 11.1087 8.91108L8.27066 11.7621L8.19823 11.8464C7.98105 12.1405 8.00621 12.5571 8.27308 12.8227L8.35736 12.8952C8.65147 13.1123 9.06808 13.0872 9.33374 12.8203L10.8906 11.256Z" fill="#E74C3C"/>
</svg>
