<svg width="24" height="24" viewBox="0 0 24 24" fill="none" xmlns="http://www.w3.org/2000/svg">
<path fill-rule="evenodd" clip-rule="evenodd" d="M14.6063 2.0119C14.5632 2.00421 14.5189 2.0002 14.4736 2.0002C14.4283 2.0002 14.384 2.00421 14.3409 2.0119H8.0843C5.597 2.0119 3.5003 4.02973 3.5003 6.4909V17.3399C3.5003 19.9221 5.48574 21.8649 8.0843 21.8649H16.0723C18.5409 21.8649 20.5523 19.8199 20.5523 17.3399V8.0379C20.5523 7.84426 20.4774 7.65812 20.3433 7.51844L15.2773 2.24244C15.1359 2.09516 14.9405 2.0119 14.7363 2.0119H14.6063ZM13.7236 3.5111L8.0843 3.5119C6.41283 3.5119 5.0003 4.8713 5.0003 6.4909V17.3399C5.0003 19.0863 6.30696 20.3649 8.0843 20.3649H16.0723C17.7068 20.3649 19.0523 18.997 19.0523 17.3399L19.052 8.98328L18.1755 8.98627C17.842 8.98586 17.4627 8.98516 17.041 8.9842C15.2707 8.98046 13.8264 7.59367 13.7288 5.8476L13.7236 5.6592V3.5111ZM18.231 7.48404L17.0443 7.4842C16.0379 7.48207 15.2236 6.66576 15.2236 5.6592V4.35205L18.231 7.48404ZM14.2944 12.1642C14.7086 12.1642 15.0444 12.5 15.0444 12.9142C15.0444 13.2939 14.7622 13.6077 14.3962 13.6574L14.2944 13.6642H12.5937V15.3654C12.5937 15.7796 12.2579 16.1154 11.8437 16.1154C11.464 16.1154 11.1502 15.8332 11.1005 15.4672L11.0937 15.3654V13.6642H9.3934C8.97918 13.6642 8.6434 13.3284 8.6434 12.9142C8.6434 12.5345 8.92555 12.2207 9.29163 12.171L9.3934 12.1642H11.0937V10.4644C11.0937 10.0502 11.4295 9.7144 11.8437 9.7144C12.2234 9.7144 12.5372 9.99655 12.5869 10.3626L12.5937 10.4644V12.1642H14.2944Z" fill="#E74C3C"/>
</svg>
