<svg width="24" height="24" viewBox="0 0 24 24" fill="none" xmlns="http://www.w3.org/2000/svg">
<path fill-rule="evenodd" clip-rule="evenodd" d="M14.6066 2.0119C14.5635 2.00421 14.5192 2.0002 14.4739 2.0002C14.4286 2.0002 14.3843 2.00421 14.3412 2.0119H7.9786C5.50507 2.0119 3.4996 4.017 3.4996 6.4909V17.3399C3.4996 19.909 5.57564 21.8649 8.1896 21.8649H16.0726C18.541 21.8649 20.5516 19.8201 20.5516 17.3399V8.0379C20.5516 7.84428 20.4767 7.65817 20.3426 7.5185L15.2776 2.2425C15.1362 2.09518 14.9408 2.0119 14.7366 2.0119H14.6066ZM13.7239 3.5111L7.9786 3.5119C6.33344 3.5119 4.9996 4.84549 4.9996 6.4909V17.3399C4.9996 19.0599 6.38475 20.3649 8.1896 20.3649H16.0726C17.7069 20.3649 19.0516 18.9973 19.0516 17.3399L19.051 8.98328L18.1755 8.98627C17.8418 8.98586 17.4623 8.98516 17.0403 8.9842C15.2708 8.98046 13.8266 7.59348 13.7291 5.84759L13.7239 5.6592V3.5111ZM18.2302 7.48404L17.0436 7.4842C16.0381 7.48207 15.2239 6.66565 15.2239 5.6592V4.35254L18.2302 7.48404ZM9.58007 10.6513C9.84634 10.385 10.263 10.3608 10.5566 10.5787L10.6407 10.6513L11.8435 11.854L13.0463 10.6513C13.3392 10.3584 13.814 10.3584 14.1069 10.6513C14.3732 10.9175 14.3974 11.3342 14.1795 11.6278L14.1069 11.7119L12.9042 12.9147L14.1067 14.1173C14.3996 14.4102 14.3996 14.885 14.1067 15.1779C13.8405 15.4442 13.4238 15.4684 13.1302 15.2505L13.0461 15.1779L11.8435 13.9754L10.6409 15.1779C10.348 15.4708 9.87316 15.4708 9.58027 15.1779C9.314 14.9117 9.2898 14.495 9.50765 14.2014L9.58027 14.1173L10.7828 12.9147L9.58007 11.7119C9.28718 11.419 9.28718 10.9442 9.58007 10.6513Z" fill="#E74C3C"/>
</svg>
