<svg width="24" height="24" viewBox="0 0 24 24" fill="none" xmlns="http://www.w3.org/2000/svg">
<path fill-rule="evenodd" clip-rule="evenodd" d="M14.4738 2.0002C14.5191 2.0002 14.5634 2.00421 14.6065 2.0119H14.7365C14.9407 2.0119 15.1361 2.09516 15.2775 2.24244L20.3435 7.51844C20.4776 7.65812 20.5525 7.84426 20.5525 8.0379V17.3399C20.5525 19.8199 18.5411 21.8649 16.0725 21.8649H8.0845C5.48594 21.8649 3.5005 19.9221 3.5005 17.3399V6.4909C3.5005 4.02943 5.59652 2.0119 8.0845 2.0119H14.3411C14.3842 2.00421 14.4285 2.0002 14.4738 2.0002ZM8.0845 3.5119L13.7238 3.5111V5.6592L13.729 5.8476C13.8266 7.59367 15.2709 8.98046 17.0412 8.9842C17.4629 8.98516 17.8422 8.98586 18.1757 8.98627L19.052 8.98328L19.0525 17.3399C19.0525 18.997 17.707 20.3649 16.0725 20.3649H8.0845C6.30717 20.3649 5.0005 19.0863 5.0005 17.3399V6.4909C5.0005 4.87094 6.41241 3.5119 8.0845 3.5119ZM17.0445 7.4842L18.231 7.48404L15.2238 4.35225V5.6592C15.2238 6.66576 16.0381 7.48207 17.0445 7.4842ZM15.0441 13.7472C15.0441 13.333 14.7083 12.9972 14.2941 12.9972H9.3931L9.29133 13.004C8.92525 13.0537 8.6431 13.3675 8.6431 13.7472C8.6431 14.1614 8.97889 14.4972 9.3931 14.4972H14.2941L14.3959 14.4904C14.7619 14.4407 15.0441 14.1269 15.0441 13.7472Z" fill="#E74C3C"/>
</svg>
