<svg width="24" height="24" viewBox="0 0 24 24" fill="none" xmlns="http://www.w3.org/2000/svg">
<path fill-rule="evenodd" clip-rule="evenodd" d="M14.6067 2.0119C14.5636 2.00421 14.5193 2.0002 14.474 2.0002C14.4287 2.0002 14.3844 2.00421 14.3413 2.0119H8.08369C5.5964 2.0119 3.49969 4.02973 3.49969 6.4909V17.2039C3.49969 19.8045 5.50429 21.8649 8.08369 21.8649H16.0727C18.526 21.8649 20.5517 19.703 20.5517 17.2039V8.0379C20.5517 7.84428 20.4768 7.65817 20.3427 7.5185L15.2777 2.2425C15.1363 2.09518 14.9409 2.0119 14.7367 2.0119H14.6067ZM13.724 3.5111L8.08369 3.5119C6.41223 3.5119 4.99969 4.8713 4.99969 6.4909V17.2039C4.99969 18.9851 6.34208 20.3649 8.08369 20.3649H16.0727C17.675 20.3649 19.0517 18.8956 19.0517 17.2039L19.051 8.98328L18.1755 8.98627C17.8419 8.98586 17.4624 8.98516 17.0404 8.9842C15.2709 8.98046 13.8267 7.59348 13.7292 5.84759L13.724 5.6592V3.5111ZM18.2302 7.48404L17.0437 7.4842C16.0382 7.48207 15.224 6.66565 15.224 5.6592V4.35264L18.2302 7.48404ZM14.284 14.8078C14.6982 14.8078 15.034 15.1436 15.034 15.5578C15.034 15.9375 14.7518 16.2513 14.3858 16.301L14.284 16.3078H8.88699C8.47278 16.3078 8.13699 15.972 8.13699 15.5578C8.13699 15.1781 8.41915 14.8643 8.78522 14.8146L8.88699 14.8078H14.284ZM12.9925 10.6056C12.9925 10.1914 12.6567 9.8556 12.2425 9.8556H8.88649L8.78472 9.86244C8.41865 9.91211 8.13649 10.2259 8.13649 10.6056C8.13649 11.0198 8.47228 11.3556 8.88649 11.3556H12.2425L12.3443 11.3488C12.7103 11.2991 12.9925 10.9853 12.9925 10.6056Z" fill="#E74C3C"/>
</svg>
