<svg width="24" height="24" viewBox="0 0 24 24" fill="none" xmlns="http://www.w3.org/2000/svg">
<path fill-rule="evenodd" clip-rule="evenodd" d="M16.3344 2.0002H7.6654C4.26782 2.0002 2.0004 4.43279 2.0004 7.9162V16.0842C2.0004 19.5709 4.26177 22.0002 7.6654 22.0002H16.3334C19.738 22.0002 22.0004 19.5709 22.0004 16.0842V7.9162C22.0004 4.4297 19.7382 2.0002 16.3344 2.0002ZM7.6654 3.5002H16.3344C18.8849 3.5002 20.5004 5.23516 20.5004 7.9162V16.0842C20.5004 18.7654 18.8848 20.5002 16.3334 20.5002H7.6654C5.11516 20.5002 3.5004 18.7655 3.5004 16.0842V7.9162C3.5004 5.23857 5.12074 3.5002 7.6654 3.5002ZM8.8403 9.3982C7.40415 9.3982 6.2393 10.5639 6.2393 12.0002C6.2393 13.4365 7.40415 14.6022 8.8403 14.6022C10.0164 14.6022 11.0105 13.8213 11.3325 12.7502L13.4316 12.7501V13.8517L13.4384 13.9535C13.4881 14.3195 13.8019 14.6017 14.1816 14.6017C14.5958 14.6017 14.9316 14.2659 14.9316 13.8517V12.75L16.26 12.75L16.2603 13.8522L16.2671 13.954C16.3168 14.32 16.6306 14.6022 17.0103 14.6022C17.4245 14.6022 17.7603 14.2664 17.7603 13.8522V12.0002L17.7535 11.8984C17.7038 11.5324 17.39 11.2502 17.0103 11.2502H14.2092C14.2001 11.2499 14.1908 11.2497 14.1816 11.2497C14.1723 11.2497 14.1631 11.2499 14.154 11.2502H11.3325C11.0104 10.179 10.0164 9.3982 8.8403 9.3982ZM8.8403 10.8982C9.44868 10.8982 9.9423 11.392 9.9423 12.0002C9.9423 12.6084 9.44868 13.1022 8.8403 13.1022C8.23283 13.1022 7.7393 12.6083 7.7393 12.0002C7.7393 11.3921 8.23283 10.8982 8.8403 10.8982Z" fill="#E74C3C"/>
</svg>
