<svg width="24" height="24" viewBox="0 0 24 24" fill="none" xmlns="http://www.w3.org/2000/svg">
<path fill-rule="evenodd" clip-rule="evenodd" d="M5.42089 20.7C5.68489 21.193 6.19989 21.501 6.75989 21.5C6.99589 21.501 7.22989 21.446 7.43989 21.34L11.9919 18.96C12.0039 18.953 12.0179 18.949 12.0319 18.95L16.5529 21.31C16.7719 21.428 17.0169 21.489 17.2649 21.488C17.3439 21.488 17.4239 21.481 17.5019 21.47C18.3159 21.337 18.8719 20.575 18.7519 19.76L17.8719 14.75C17.8669 14.7429 17.8655 14.7424 17.8651 14.7416C17.8649 14.7412 17.8649 14.7409 17.8649 14.74C17.8649 14.737 17.8719 14.73 17.8719 14.73L21.5419 11.18C22.0839 10.657 22.1529 9.814 21.7019 9.21C21.4569 8.894 21.0979 8.686 20.7019 8.63L15.6399 7.9C15.6309 7.9 15.6209 7.89 15.6109 7.88L13.3499 3.34C13.0949 2.827 12.5729 2.503 11.9999 2.5C11.8339 2.5 11.6679 2.526 11.5099 2.58C11.1309 2.709 10.8179 2.981 10.6399 3.34L8.38189 7.867C8.38189 7.888 8.36089 7.897 8.34089 7.897L3.29089 8.627C2.98189 8.679 2.69389 8.817 2.46089 9.027C2.16589 9.316 1.99989 9.713 1.99989 10.127C2.00089 10.52 2.15889 10.896 2.43989 11.17L6.13989 14.73C6.14789 14.738 6.15089 14.749 6.15089 14.76L5.25989 19.75C5.20689 20.076 5.26389 20.41 5.42089 20.7ZM11.9709 3.967L11.9809 3.96H11.9999L12.0089 3.969C12.0179 3.969 12.0259 3.971 12.0329 3.977C12.0389 3.983 12.0419 3.991 12.0409 4L14.3009 8.519C14.5179 8.964 14.9399 9.274 15.4299 9.349L20.4919 10.085C20.5009 10.085 20.5099 10.087 20.5179 10.091C20.5229 10.092 20.5269 10.092 20.5319 10.091L20.5419 10.1L20.5319 10.122L16.8619 13.681C16.4969 14.023 16.3339 14.529 16.4309 15.02L17.3119 20.001L17.2919 20.02H17.2709C17.2669 20.022 17.2629 20.022 17.2589 20.02C17.2489 20.019 17.2389 20.015 17.2299 20.01H17.2209L12.7209 17.66C12.5049 17.548 12.2649 17.488 12.0209 17.489C11.7699 17.489 11.5219 17.552 11.2999 17.67L6.77089 20.045C6.76589 20.046 6.75989 20.046 6.75489 20.045C6.73389 20.045 6.71589 20.031 6.71089 20.011V19.991L7.59089 15.011C7.67289 14.524 7.51289 14.027 7.16089 13.681L3.46089 10.131C3.45989 10.116 3.46189 10.103 3.46989 10.09L3.53089 10.07L8.56089 9.349C9.05089 9.273 9.47189 8.964 9.68989 8.519L11.9509 3.989C11.9559 3.98 11.9619 3.972 11.9709 3.967Z" fill="#E74C3C"/>
</svg>
