<svg width="24" height="24" viewBox="0 0 24 24" fill="none" xmlns="http://www.w3.org/2000/svg">
<path fill-rule="evenodd" clip-rule="evenodd" d="M2.02151 12.669C2.02151 10.2898 3.89545 8.34785 6.24775 8.23882L6.45651 8.234H7.38951C7.80373 8.234 8.13951 8.56978 8.13951 8.984C8.13951 9.36369 7.85736 9.67749 7.49129 9.72715L7.38951 9.734H6.45651C4.89361 9.734 3.61578 10.956 3.5265 12.4966L3.52151 12.669L3.52151 17.544C3.52151 19.1061 4.74365 20.3837 6.28409 20.473L6.45651 20.478H17.5865C19.1493 20.478 20.4272 19.2561 20.5165 17.7163L20.5215 17.544V12.659C20.5215 11.1016 19.3039 9.82796 17.7693 9.73896L17.5975 9.734H16.6545C16.2403 9.734 15.9045 9.39821 15.9045 8.984C15.9045 8.6043 16.1867 8.29051 16.5527 8.24084L16.6545 8.234H17.5975C19.9687 8.234 21.9046 10.1008 22.0164 12.4446L22.0215 12.659V17.544C22.0215 19.9224 20.1474 21.8642 17.7953 21.9732L17.5865 21.978H6.45651C4.07746 21.978 2.13538 20.1042 2.02634 17.7527L2.02151 17.544V12.669ZM11.4797 1.67179C11.6162 1.52925 11.8085 1.4405 12.0214 1.4405C12.2365 1.4405 12.4305 1.53104 12.5672 1.67609L15.4687 4.58956C15.761 4.88305 15.76 5.35792 15.4666 5.65022C15.1997 5.91593 14.783 5.93929 14.4899 5.72083L14.4059 5.64804L12.7714 4.00797L12.7714 14.2315C12.7714 14.6457 12.4356 14.9815 12.0214 14.9815C11.6417 14.9815 11.3279 14.6993 11.2783 14.3333L11.2714 14.2315L11.2714 4.00629L9.63782 5.64795C9.37215 5.9148 8.95554 5.93994 8.66145 5.72274L8.57717 5.65031C8.31031 5.38463 8.28517 4.96802 8.50238 4.67393L8.57481 4.58965L11.4797 1.67179Z" fill="#E74C3C"/>
</svg>
