<svg width="24" height="24" viewBox="0 0 24 24" fill="none" xmlns="http://www.w3.org/2000/svg">
<path fill-rule="evenodd" clip-rule="evenodd" d="M12.5732 4.4998H6.30421C3.73911 4.4998 2.00021 6.21889 2.00021 8.6878V15.7028C2.00021 18.1717 3.73911 19.8908 6.30421 19.8908H12.5732C14.9914 19.8908 16.681 18.3553 16.8612 16.1067L19.5082 17.1885L19.6407 17.2369C20.7925 17.6087 21.9999 16.7525 21.9999 15.5153V8.8763L21.9946 8.73529C21.9036 7.52861 20.6539 6.73453 19.5086 7.20189L16.8613 8.28391C16.6816 6.03367 14.9953 4.4998 12.5732 4.4998ZM15.3772 9.36733C15.3766 9.38543 15.3765 9.40359 15.3772 9.4218V14.9688C15.3765 14.987 15.3766 15.0052 15.3772 15.0233V15.7028C15.3772 17.3367 14.3094 18.3908 12.5732 18.3908H6.30421C4.56371 18.3908 3.50021 17.3394 3.50021 15.7028V8.6878C3.50021 7.05119 4.56371 5.9998 6.30421 5.9998H12.5732C14.3131 5.9998 15.3772 7.05158 15.3772 8.6878V9.36733ZM16.8772 14.4927V9.89786L20.0757 8.59055L20.1435 8.57139C20.3246 8.54201 20.4999 8.68151 20.4999 8.8763V15.5153L20.492 15.5854C20.4509 15.7642 20.2558 15.8735 20.0753 15.7999L16.8772 14.4927Z" fill="#E74C3C"/>
</svg>
