<svg width="24" height="24" viewBox="0 0 24 24" fill="none" xmlns="http://www.w3.org/2000/svg">
<path fill-rule="evenodd" clip-rule="evenodd" d="M12.987 3.25101L12.8312 3.25697C12.3215 3.30361 11.6943 3.5964 11.2741 3.95237L7.80299 6.78101L5.97142 6.78156C4.6039 6.78156 3.59108 7.80422 3.39733 9.18948C3.20404 10.7398 3.19817 13.3245 3.39733 14.7477L3.424 14.9307C3.66024 16.3131 4.62234 17.2195 5.97142 17.2195L7.80399 17.219L11.3639 20.111C11.8157 20.4909 12.4652 20.7623 12.9986 20.7492C14.0464 20.7808 14.994 20.0125 15.3374 18.8657C15.417 18.5698 15.4656 18.3119 15.5082 17.9767L15.6159 16.9828C15.7894 15.5967 15.7946 8.87316 15.6314 7.16151L15.5503 6.42313C15.4894 5.8597 15.4371 5.51359 15.3445 5.15969C15.0122 4.04975 14.1441 3.30125 13.1288 3.25252L12.987 3.25101ZM12.964 4.75044L13.002 4.7503C13.3741 4.73944 13.7427 5.03851 13.9005 5.5649L13.9437 5.75456C13.9708 5.89074 13.9952 6.04958 14.0204 6.25006L14.1269 7.20008C14.2909 8.51031 14.2909 15.4908 14.1272 16.7987L14.0988 17.0503L14.0655 17.3798C14.0146 17.8863 13.9735 18.1618 13.8945 18.4563C13.7427 18.9621 13.3746 19.2606 13.002 19.2497C12.8295 19.2529 12.5204 19.1238 12.3193 18.9547L8.54276 15.8873C8.40909 15.7788 8.24213 15.7195 8.06993 15.7195H5.97142C5.36403 15.7195 4.97939 15.3347 4.88464 14.5535C4.70268 13.2522 4.70825 10.7991 4.88434 9.38612C4.97893 8.71047 5.40371 8.28156 5.97142 8.28156H8.06993C8.24258 8.28156 8.40996 8.22199 8.54379 8.1129L12.2327 5.10599C12.4539 4.91882 12.8429 4.74784 12.964 4.75044ZM19.3324 6.14583C19.096 5.80573 18.6286 5.72171 18.2885 5.95817C17.9484 6.19462 17.8644 6.662 18.1008 7.00209C18.9973 8.29154 19.5051 10.0095 19.5051 11.8765C19.5051 13.7433 18.9975 15.4603 18.1008 16.7499C17.8644 17.09 17.9484 17.5574 18.2885 17.7939C18.6286 18.0303 19.096 17.9463 19.3324 17.6062C20.4089 16.0578 21.0051 14.0414 21.0051 11.8765C21.0051 9.71151 20.4088 7.69402 19.3324 6.14583Z" fill="#E74C3C"/>
</svg>
