<svg width="18" height="17" viewBox="0 0 18 17" fill="none" xmlns="http://www.w3.org/2000/svg">
<path d="M6.27547 2.38525C7.13303 -0.254065 10.867 -0.254065 11.7245 2.38525C12.108 3.56559 13.208 4.36475 14.4491 4.36475C17.2242 4.36475 18.3781 7.91593 16.1329 9.54712C15.1289 10.2766 14.7087 11.5697 15.0922 12.75C15.9498 15.3893 12.929 17.5841 10.6839 15.9529C9.6798 15.2234 8.3202 15.2234 7.31614 15.9529C5.07101 17.5841 2.05019 15.3893 2.90776 12.75C3.29127 11.5697 2.87113 10.2766 1.86708 9.54712C-0.378063 7.91593 0.775787 4.36475 3.55093 4.36475C4.79201 4.36475 5.89195 3.56559 6.27547 2.38525Z" fill="#FFD65E"/>
</svg>
