<svg width="71" height="61" viewBox="0 0 71 61" fill="none" xmlns="http://www.w3.org/2000/svg">
<path fill-rule="evenodd" clip-rule="evenodd" d="M0.000244141 50.6876C10.6302 45.4755 15.9451 39.3513 15.9451 32.315C11.4143 31.7937 7.66771 29.9478 4.70527 26.7771C1.74283 23.6064 0.261635 19.9363 0.261635 15.7666C0.261635 11.3363 1.69927 7.60098 4.57458 4.56058C7.44989 1.52018 11.0657 0 15.4223 0C20.3016 0 24.5274 1.97623 28.0997 5.92875C31.6721 9.88128 33.4582 14.6807 33.4582 20.3271C33.4582 37.2665 23.9611 50.5138 4.96666 60.0693L0.000244141 50.6876ZM37.5137 50.6876C48.2308 45.4755 53.5892 39.3513 53.5892 32.315C48.9713 31.7937 45.1812 29.9478 42.2187 26.7771C39.2563 23.6064 37.7751 19.9363 37.7751 15.7666C37.7751 11.3363 39.2345 7.60098 42.1534 4.56058C45.0723 1.52018 48.7099 0 53.0664 0C57.9458 0 62.1497 1.97623 65.6785 5.92875C69.2073 9.88128 70.9717 14.6807 70.9717 20.3271C70.9717 37.2665 61.5182 50.5138 42.6108 60.0693L37.5137 50.6876Z" fill="#9A6CB3" fill-opacity="0.75"/>
</svg>
