<svg width="24" height="22" viewBox="0 0 24 22" fill="none" xmlns="http://www.w3.org/2000/svg">
<path fill-rule="evenodd" clip-rule="evenodd" d="M2.7071 0.292893L1.29289 1.70711L5.35771 5.77193C4.97905 6.08574 4.60431 6.42275 4.2337 6.78115C3.40448 7.58305 2.6543 8.43916 1.9939 9.29562C1.5954 9.81244 1.31247 10.219 1.15756 10.4612L0.812958 11L1.15756 11.5388C1.31247 11.781 1.5954 12.1876 1.9939 12.7044C2.6543 13.5608 3.40448 14.417 4.2337 15.2189C6.66431 17.5694 9.27244 19 12 19C13.7209 19 15.3943 18.4305 17.0055 17.4198L21.2929 21.7071L22.7071 20.2929L2.7071 0.292893ZM15.5446 15.9588L14.032 14.4462C13.4364 14.7981 12.7418 15 12 15C9.79085 15 7.99999 13.2091 7.99999 11C7.99999 10.2582 8.20192 9.56355 8.55381 8.96803L6.77971 7.19393C6.39232 7.50634 6.00677 7.84872 5.62403 8.21885C4.86983 8.9482 4.18238 9.73272 3.57774 10.5169C3.44715 10.6862 3.32648 10.8478 3.21616 11C3.32648 11.1522 3.44715 11.3138 3.57774 11.4831C4.18238 12.2673 4.86983 13.0518 5.62403 13.7811C7.71748 15.8056 9.89492 17 12 17C13.1682 17 14.3586 16.6322 15.5446 15.9588ZM10.0677 10.482C10.0236 10.6472 9.99999 10.8208 9.99999 11C9.99999 12.1046 10.8954 13 12 13C12.1792 13 12.3528 12.9764 12.518 12.9323L10.0677 10.482ZM20.0981 14.891L18.6838 13.4767C19.318 12.8356 19.9009 12.1593 20.4222 11.4831C20.5528 11.3138 20.6735 11.1522 20.7838 11C20.6735 10.8478 20.5528 10.6862 20.4222 10.5169C19.8176 9.73272 19.1302 8.9482 18.376 8.21885C16.2825 6.19438 14.1051 5 12 5C11.4777 5 10.9509 5.07353 10.4221 5.21502L8.84014 3.63304C9.87259 3.22138 10.9271 3 12 3C14.7275 3 17.3357 4.43062 19.7663 6.78115C20.5955 7.58305 21.3457 8.43916 22.0061 9.29562C22.4046 9.81244 22.6875 10.219 22.8424 10.4612L23.187 11L22.8424 11.5388C22.6875 11.781 22.4046 12.1876 22.0061 12.7044C21.4349 13.4451 20.7966 14.1856 20.0981 14.891Z" fill="#9A9AB0"/>
</svg>
