<svg width="22" height="22" viewBox="0 0 22 22" fill="none" xmlns="http://www.w3.org/2000/svg">
<path d="M15.3394 8.32245C15.7434 7.94589 15.7657 7.31312 15.3891 6.90911C15.0126 6.50509 14.3798 6.48283 13.9758 6.85938L11.0497 9.58661L8.32245 6.66048C7.94589 6.25647 7.31312 6.23421 6.90911 6.61076C6.50509 6.98731 6.48283 7.62008 6.85938 8.0241L9.58661 10.9502L6.66048 13.6775C6.25647 14.054 6.23421 14.6868 6.61076 15.0908C6.98731 15.4948 7.62008 15.5171 8.0241 15.1405L10.9502 12.4133L13.6775 15.3394C14.054 15.7434 14.6868 15.7657 15.0908 15.3891C15.4948 15.0126 15.5171 14.3798 15.1405 13.9758L12.4133 11.0497L15.3394 8.32245Z" fill="black"/>
<path fill-rule="evenodd" clip-rule="evenodd" d="M0 11C0 4.92487 4.92487 0 11 0C17.0751 0 22 4.92487 22 11C22 17.0751 17.0751 22 11 22C4.92487 22 0 17.0751 0 11ZM11 20C6.02944 20 2 15.9706 2 11C2 6.02944 6.02944 2 11 2C15.9706 2 20 6.02944 20 11C20 15.9706 15.9706 20 11 20Z" fill="black"/>
</svg>
