<svg width="12" height="12" viewBox="0 0 12 12" fill="none" xmlns="http://www.w3.org/2000/svg">
<path fill-rule="evenodd" clip-rule="evenodd" d="M8.57633 7.18778H8.03431L7.8422 7.01135C8.51458 6.26644 8.91938 5.29936 8.91938 4.24732C8.91938 1.90149 6.92281 0 4.45969 0C1.99657 0 0 1.90149 0 4.24732C0 6.59316 1.99657 8.49465 4.45969 8.49465C5.56432 8.49465 6.57976 8.10912 7.36192 7.46876L7.54717 7.65172V8.16793L10.9777 11.4286L12 10.455L8.57633 7.18778ZM4.45983 7.18783C2.75142 7.18783 1.37235 5.87443 1.37235 4.24738C1.37235 2.62032 2.75142 1.30692 4.45983 1.30692C6.16823 1.30692 7.54731 2.62032 7.54731 4.24738C7.54731 5.87443 6.16823 7.18783 4.45983 7.18783Z" fill="#065489"/>
</svg>
