<svg width="82" height="82" viewBox="0 0 82 82" fill="none" xmlns="http://www.w3.org/2000/svg">
<path d="M41 82C63.6437 82 82 63.6437 82 41C82 18.3563 63.6437 0 41 0C18.3563 0 0 18.3563 0 41C0 63.6437 18.3563 82 41 82Z" fill="#4176FA"/>
<path d="M55.6985 33.869C43.8563 33.869 43.8409 45.6666 43.8409 45.7273C43.8409 45.7273 43.0297 57.5395 55.6985 57.5395C55.6985 57.5395 66.2638 58.1402 66.2638 49.3187H60.8386C60.8386 49.3187 61.0184 52.6398 55.879 52.6398C55.879 52.6398 50.4538 53.0008 50.4538 47.2745H66.4443C66.4443 47.2745 68.2028 33.869 55.6985 33.869ZM50.3931 43.1415C50.3931 43.1415 51.0545 38.3923 55.819 38.3923C60.5982 38.3923 60.5229 43.1415 60.5229 43.1415H50.3931ZM36.8385 40.1062C36.8385 40.1062 41.5424 39.7605 41.5424 34.23C41.5424 28.7149 37.6951 26.0093 32.8107 26.0093H16.7441V56.8927H32.8093C32.8093 56.8927 42.6233 57.1938 42.6233 47.7707C42.624 47.7707 43.045 40.1062 36.8385 40.1062ZM23.8233 31.4944H32.81C32.81 31.4944 34.9894 31.4944 34.9894 34.7102C34.9894 37.926 33.7119 38.3923 32.2538 38.3923H23.8233V31.4944ZM32.3598 51.4075H23.8233V43.1415H32.81C32.81 43.1415 36.0718 43.1115 36.0565 47.3944C36.0565 51.0019 33.6373 51.3776 32.3598 51.4075ZM49.0556 27.8277V31.6304H61.8004V27.8277H49.0556Z" fill="#F1F2F2"/>
</svg>
