<svg width="82" height="82" viewBox="0 0 82 82" fill="none" xmlns="http://www.w3.org/2000/svg">
<path d="M41 82C63.6437 82 82 63.6437 82 41C82 18.3563 63.6437 0 41 0C18.3563 0 0 18.3563 0 41C0 63.6437 18.3563 82 41 82Z" fill="#F26798"/>
<path d="M40.9994 14.9623C26.624 14.9623 14.9287 26.6437 14.9287 41.0008C14.9287 55.3579 26.624 67.0385 40.9994 67.0385C55.3754 67.0385 67.0715 55.3586 67.0715 41.0008C67.0715 26.6437 55.3754 14.9623 40.9994 14.9623ZM58.1549 27.2518C61.1288 30.9375 62.9362 35.5924 63.0196 40.6646C62.03 40.4614 57.8392 39.6801 52.8313 39.6801C51.2154 39.6801 49.5146 39.7612 47.8095 39.9717C47.6656 39.6216 47.5216 39.273 47.3703 38.9207C46.9281 37.8807 46.4516 36.8487 45.9583 35.8321C53.666 32.6565 57.3839 28.2494 58.1549 27.2518ZM40.9994 19.0383C46.5547 19.0383 51.6327 21.1023 55.5114 24.5015C54.8975 25.3391 51.5676 29.5014 44.1355 32.3093C40.6953 26.021 36.9299 20.8136 36.0339 19.6047C37.6308 19.2349 39.2928 19.0383 40.9994 19.0383ZM31.5383 21.1724C32.2977 22.2183 36.0689 27.4812 39.5976 33.7192C30.1278 36.2085 21.7184 36.3707 19.6888 36.3707H19.4732C20.9313 29.6512 25.4714 24.0674 31.5383 21.1724ZM18.9733 41.0351C18.9733 40.8539 18.9762 40.6726 18.9821 40.4921C19.1136 40.4935 19.308 40.4935 19.5602 40.4935C22.2936 40.4935 31.7817 40.2677 41.5592 37.3662C42.1527 38.5268 42.7176 39.7049 43.2431 40.8824C42.9961 40.9533 42.7527 41.0242 42.5108 41.1031C31.5018 44.6587 25.451 54.0715 24.5198 55.61C21.0702 51.7233 18.9733 46.6204 18.9733 41.0351ZM40.9994 63.0305C35.9476 63.0305 31.2854 61.3195 27.5653 58.4509C28.1946 57.2172 32.7618 48.9942 44.8262 44.7954C44.8335 44.7925 44.8415 44.7896 44.8503 44.7874C47.8753 52.6632 49.1565 59.2731 49.5081 61.3217C46.8901 62.4224 44.0149 63.0305 40.9994 63.0305ZM53.4752 59.1532C53.1799 57.4584 51.993 51.2636 49.2537 43.7079C50.79 43.4689 52.2846 43.3746 53.6864 43.3746C58.2901 43.3746 61.8911 44.3825 62.7279 44.6383C61.7332 50.6379 58.2982 55.83 53.4752 59.1532Z" fill="#F1F2F2"/>
</svg>
