<?xml version="1.0" encoding="iso-8859-1"?>
<!-- Generator: Adobe Illustrator 19.0.0, SVG Export Plug-In . SVG Version: 6.00 Build 0)  -->
<svg version="1.1" id="Layer_1" xmlns="http://www.w3.org/2000/svg" xmlns:xlink="http://www.w3.org/1999/xlink" x="0px" y="0px"
	 viewBox="0 0 473.931 473.931" style="enable-background:new 0 0 473.931 473.931;" xml:space="preserve">
<circle style="fill:#0FB2BC;" cx="236.966" cy="236.966" r="236.966"/>
<path style="fill:#0CAEB1;" d="M404.522,69.38c92.541,92.549,92.549,242.593,0,335.142c-92.541,92.541-242.597,92.545-335.142,0
	L404.522,69.38z"/>
<path style="fill:#0BA0A0;" d="M473.763,243.663L363.415,133.315l-49.268,49.268l-25.571-25.571l-34.611,34.611l-57.062-57.062
	l-24.321,24.321l-10.6-10.6l-61.84,61.84l122.853,122.853l-30.87,30.873l102.891,102.887
	C395.732,441.367,470.755,351.527,473.763,243.663z"/>
<path style="fill:#FFFFFF;" d="M335.49,124.473c-40.572-1.325-68.029,21.437-82.405,68.306c7.405-3.05,14.597-4.591,21.616-4.591
	c14.795,0,21.343,8.303,19.596,24.958c-0.868,10.084-7.405,24.752-19.596,44.011c-12.243,19.285-21.384,28.916-27.457,28.916
	c-7.884,0-15.061-14.9-21.616-44.669c-2.2-8.763-6.125-31.087-11.757-67.015c-5.276-33.279-19.218-48.826-41.885-46.641
	c-9.59,0.879-23.951,9.657-43.124,26.278c-13.983,12.707-28.153,25.414-42.563,38.114l13.725,17.717
	c13.1-9.205,20.763-13.785,22.888-13.785c10.043,0,19.427,15.757,28.146,47.262c7.831,28.935,15.715,57.833,23.577,86.73
	c11.712,31.528,26.144,47.3,43.124,47.3c27.465,0,61.088-25.826,100.743-77.507c38.364-49.474,58.169-88.455,59.505-116.941
	C379.77,144.84,365.604,125.341,335.49,124.473z"/>
<g>
</g>
<g>
</g>
<g>
</g>
<g>
</g>
<g>
</g>
<g>
</g>
<g>
</g>
<g>
</g>
<g>
</g>
<g>
</g>
<g>
</g>
<g>
</g>
<g>
</g>
<g>
</g>
<g>
</g>
</svg>
